<svg xmlns="http://www.w3.org/2000/svg" xmlns:svg="http://www.w3.org/2000/svg" id="svg457" width="370" height="350" version="1.1" viewBox="0 0 97.896 92.604"><defs id="defs451"><linearGradient id="g368488a2f1_0_0.13" x1="66.914" x2="60.369" y1="27.776" y2="21.231" gradientTransform="matrix(9.4038668,0,0,9.4038668,-461.92852,-110.0296)" gradientUnits="userSpaceOnUse" spreadMethod="pad"><stop id="stop155" offset="0" stop-color="#e5e5e5"/><stop id="stop157" offset="1" stop-color="#fcfcfc"/></linearGradient><linearGradient id="g368488a2f1_0_0.12" x1="53.774" x2="63.318" y1="29.614" y2="29.614" gradientTransform="matrix(9.6976229,0,0,9.6976229,-461.92852,-110.0296)" gradientUnits="userSpaceOnUse" spreadMethod="pad"><stop id="stop142" offset="0" stop-color="#dbdcdd"/><stop id="stop144" offset=".41" stop-color="#dbdcdd"/><stop id="stop146" offset=".6" stop-color="#b1b3b5"/><stop id="stop148" offset="1" stop-color="#b1b3b5"/></linearGradient><linearGradient id="g368488a2f1_0_0.11" x1="53.799" x2="63.34" y1="30.129" y2="30.129" gradientTransform="matrix(9.6936082,0,0,9.6936082,-461.92852,-110.0296)" gradientUnits="userSpaceOnUse" spreadMethod="pad"><stop id="stop133" offset="0" stop-color="#6cf"/><stop id="stop135" offset="1" stop-color="#1db4ff"/></linearGradient><linearGradient id="g368488a2f1_0_0.10" x1="53.776" x2="63.321" y1="31.218" y2="31.218" gradientTransform="matrix(9.6976252,0,0,9.6976252,-461.92852,-110.0296)" gradientUnits="userSpaceOnUse" spreadMethod="pad"><stop id="stop120" offset="0" stop-color="#0a93eb"/><stop id="stop122" offset=".45" stop-color="#0a93eb"/><stop id="stop124" offset=".56" stop-color="#0f72e5"/><stop id="stop126" offset="1" stop-color="#0f72e5"/></linearGradient></defs><metadata id="metadata454"/><g id="layer1" transform="translate(-56.885418,-102.7528)"><path style="fill:url(#g368488a2f1_0_0.10);fill-rule:evenodd;stroke-width:1.01600659" id="path131" d="m 152.13542,166.75055 v 0 c 0,10.64462 0,10.64462 0,10.64462 0,0.29338 -0.293,0.58707 -1.18265,0.89027 -42.87945,14.20537 -42.87945,14.20537 -42.87945,14.20537 -1.18265,0.29376 -3.24621,0.29376 -4.72197,0 -42.888786,-14.20537 -42.888786,-14.20537 -42.888786,-14.20537 -0.293953,0 -0.587066,-0.30297 -0.587066,-0.30297 -0.302441,-0.29377 -0.302441,-0.29377 -0.302441,-0.58711 0,-10.64462 0,-10.64462 0,-10.64462 h 92.562363"/><path style="fill:url(#g368488a2f1_0_0.11);fill-rule:evenodd;stroke-width:1.01600659" id="path140" d="m 108.0737,181.80832 v 0 c 42.88007,-14.1892 42.88007,-14.1892 42.88007,-14.1892 1.47583,-0.59628 1.47583,-1.18311 0,-1.77943 -42.88007,-14.19865 -42.88007,-14.19865 -42.88007,-14.19865 -1.18315,-0.29337 -3.53935,-0.29337 -4.7225,0 -42.889438,14.19865 -42.889438,14.19865 -42.889438,14.19865 -1.182317,0.59632 -1.182317,1.18315 0,1.77943 42.889438,14.1892 42.889438,14.1892 42.889438,14.1892 1.4766,0.29338 3.53935,0.29338 4.7225,0"/><path style="fill:url(#g368488a2f1_0_0.12);fill-rule:evenodd;stroke-width:1.01600659" id="path153" d="m 152.11027,151.19341 v 0 c 0,10.64463 0,10.64463 0,10.64463 0,0.29338 -0.293,0.58706 -1.18258,0.89023 -42.87952,14.20545 -42.87952,14.20545 -42.87952,14.20545 -1.18258,0.29376 -3.24621,0.29376 -4.72197,0 -42.888719,-14.20545 -42.888719,-14.20545 -42.888719,-14.20545 -0.293915,0 -0.58707,-0.30298 -0.58707,-0.30298 -0.302441,-0.29376 -0.302441,-0.29376 -0.302441,-0.58706 0,-10.64463 0,-10.64463 0,-10.64463 h 92.5623"/><path style="fill:url(#g368488a2f1_0_0.13);fill-rule:evenodd;stroke-width:1.01600659" id="path162" d="m 108.02989,166.25119 v 0 c 42.88014,-14.1892 42.88014,-14.1892 42.88014,-14.1892 1.47576,-0.59628 1.47576,-1.18311 0,-1.77943 -42.88014,-14.19865 -42.88014,-14.19865 -42.88014,-14.19865 -1.18312,-0.29338 -3.53928,-0.29338 -4.72247,0 -42.889384,14.19865 -42.889384,14.19865 -42.889384,14.19865 -1.182379,0.59632 -1.182379,1.18315 0,1.77943 42.889384,14.1892 42.889384,14.1892 42.889384,14.1892 1.47665,0.29338 3.53935,0.29338 4.72247,0"/><path style="fill:#23282f;fill-rule:evenodd;stroke-width:1.01600659" id="path172" d="m 84.451632,127.41064 v 11.04979 h -3.683959 v 11.04863 h 3.683959 v 14.49525 h 2.494673 v -14.49525 h 3.682853 v -11.04863 h -3.682853 v -11.04979 z"/><path style="fill:#23282f;fill-rule:evenodd;stroke-width:1.01600659" id="path174" d="m 104.53032,104.95555 v 13.6637 h -3.56477 v 24.59302 h 3.56477 v 14.49525 h 2.61386 v -14.49525 h 3.6829 v -24.59302 h -3.6829 v -13.6637 z"/><path style="fill:#23282f;fill-rule:evenodd;stroke-width:1.01600659" id="path176" d="m 124.72824,108.16359 v 6.65349 h -3.68405 v 12.59356 h 3.68405 v 20.19792 h 2.61275 v -20.19792 h 3.56473 v -12.59356 h -3.56473 v -6.65349 z"/></g></svg>