<svg xmlns="http://www.w3.org/2000/svg" xmlns:svg="http://www.w3.org/2000/svg" id="svg896" width="180" height="180" version="1.1" viewBox="0 0 47.625 47.625"><metadata id="metadata893"/><g id="layer1" transform="translate(386.66961,24.796116)"><path id="path40" d="m -343.98568,-11.794911 v 5.0496 h -37.74295 v -5.0496 z m 0,10.4984878 V 12.067446 h -37.74295 V -1.2964232 Z m -37.74295,-12.7907898 -0.46026,0.05644 -0.45822,0.115163 -0.40159,0.230162 -0.28677,0.286542 -0.28677,0.342896 -0.23013,0.401613 -0.11481,0.401638 -0.0566,0.457993 v 23.862353 l 0.0566,0.460314 0.11481,0.401638 0.23013,0.401613 0.28677,0.342896 0.28677,0.286542 0.40159,0.230162 0.45822,0.115163 0.46026,0.0563 h 37.74295 l 0.45771,-0.0563 0.46026,-0.115163 0.40159,-0.230162 0.28677,-0.286542 0.28677,-0.342896 0.23013,-0.401613 0.11532,-0.401638 0.0566,-0.460314 v -23.862363 l -0.0566,-0.457992 -0.11532,-0.401639 -0.23013,-0.401613 -0.28677,-0.342896 -0.28677,-0.286542 -0.40159,-0.230162 -0.46026,-0.115163 -0.45771,-0.05644 z" style="fill:#2c3e50;fill-rule:evenodd;stroke-width:1.35008788;fill-opacity:1"/><path id="path42" d="m -378.5744,2.5459945 -0.23013,0.058727 -0.17145,0.1151627 -0.11481,0.1714352 -0.0566,0.2278252 0.0566,0.2301774 0.11481,0.1714353 0.17145,0.1151627 0.23013,0.058727 h 15.20052 l 0.23013,-0.058727 0.17145,-0.1151627 0.17145,-0.1714353 V 3.1191445 2.8913193 l -0.17145,-0.1714352 -0.17145,-0.1151627 -0.23013,-0.058727 z" style="fill:#2c3e50;fill-rule:evenodd;stroke-width:1.35008788;fill-opacity:1"/><path id="path44" d="m -378.5744,6.3320311 -0.23013,0.05873 -0.17145,0.112734 -0.11481,0.173808 -0.0566,0.2278297 0.0566,0.230178 0.11481,0.171435 0.17145,0.1151627 0.23013,0.05873 h 10.38342 l 0.22758,-0.05873 0.17401,-0.1151627 0.11277,-0.171435 0.0587,-0.230178 -0.0587,-0.2278297 -0.11277,-0.173808 -0.17401,-0.112734 -0.22758,-0.05873 z" style="fill:#2c3e50;fill-rule:evenodd;stroke-width:1.35008788;fill-opacity:1"/><path id="path46" d="m -352.18719,3.1190664 -0.23013,0.058727 -0.17145,0.1150301 -0.174,0.1714352 -0.11277,0.1714607 -0.11533,0.1737825 -0.0587,0.2278251 -0.0566,0.2301773 v 1.4914014 l 0.0566,0.2301467 0.0587,0.22783 0.11533,0.1738077 0.11277,0.171461 0.174,0.11503 0.17145,0.11503 0.23013,0.05644 0.22758,0.05644 h 3.55821 l 0.22809,-0.05644 0.23013,-0.05644 0.17145,-0.11503 0.17145,-0.11503 0.11532,-0.171461 0.11482,-0.1738077 0.11481,-0.22783 V 5.7589057 4.2675053 4.0373285 l -0.11481,-0.2278252 -0.11482,-0.1737824 -0.11532,-0.1714608 -0.17145,-0.1714352 -0.17145,-0.1150301 -0.23013,-0.058727 z" style="fill:#2c3e50;fill-rule:evenodd;stroke-width:1.35008788;fill-opacity:1"/></g></svg>