<svg xmlns="http://www.w3.org/2000/svg" xmlns:svg="http://www.w3.org/2000/svg" id="svg4029" width="180" height="180" version="1.1" viewBox="0 0 47.625 47.625"><metadata id="metadata4026"/><g id="layer1" transform="translate(62.366069,9.5385511)"><path id="path40" d="m -24.543478,7.5934945 4.837872,9.6757655 h -9.675755 z m -28.12137,0.201429 4.837883,9.6767015 h -9.675757 z m 14.110804,-11.994466 -0.604264,0.101182 -0.605212,0.101182 -0.402834,0.301652 -0.504026,0.302612 -0.302602,0.504027 -0.301663,0.402833 -0.101176,0.605213 -0.101177,0.6042597 0.101177,0.60521257 0.201415,0.60426347 0.302612,0.60519807 0.504016,0.40284457 h -0.403779 l -0.503082,0.10118222 -0.403782,0.3026008 -0.302613,0.4028449 -0.100238,0.4028483 0.100238,0.4037794 0.202369,0.4028483 0.201424,0.2014151 0.402835,0.2014187 h -11.590672 l -0.403787,0.1011822 -0.301659,0.2014261 -0.202364,0.3026009 -0.100239,0.4028452 0.100239,0.4037821 0.202364,0.301663 -6.249712,12.3982509 v 0.301661 0.302602 0.101176 l 0.101177,0.705446 0.100238,0.604264 0.202372,0.605208 0.301658,0.604264 0.705447,1.109229 0.806627,1.008053 1.109233,0.705445 1.108282,0.604265 0.605214,0.202364 0.705445,0.201418 0.604256,0.100238 h 1.410891 l 0.705446,-0.100238 0.605209,-0.201418 0.604263,-0.202364 1.210415,-0.604265 1.007104,-0.705445 0.907809,-1.008053 0.705447,-1.109229 0.201429,-0.604264 0.201415,-0.605208 0.201419,-0.604264 0.101177,-0.705446 V 18.075888 17.773286 L -45.60944,17.471625 -51.656791,5.3759754 H -39.96493 V 29.062296 h -9.978371 l -0.402841,0.20143 -0.302604,0.101177 -0.302606,0.302597 -0.302604,0.301663 -0.201419,0.403782 -0.100238,0.301663 v 0.504019 0.302608 l 0.201423,0.403784 0.402841,0.20143 h 24.795552 l 0.301661,-0.20143 0.202365,-0.403784 0.100238,-0.302608 -0.100238,-0.504019 -0.101177,-0.301663 -0.201415,-0.403782 -0.201429,-0.301663 -0.403783,-0.302597 -0.302608,-0.101177 -0.402835,-0.20143 h -9.978371 V 5.3759754 h 11.591618 l -5.947108,11.8932846 -0.101176,0.302598 v 0.302611 0.101176 l 0.101176,0.705447 0.201415,0.604263 0.201419,0.605198 0.201431,0.604263 0.70639,1.10924 0.906864,1.008042 1.008044,0.705447 1.209472,0.604263 0.604263,0.20143 0.605213,0.202364 0.705446,0.100238 h 1.41089 l 0.605199,-0.100238 0.705445,-0.202364 0.604264,-0.20143 1.209473,-0.604263 1.008046,-0.705447 0.806639,-1.008042 0.705442,-1.10924 0.3026,-0.604263 0.201419,-0.605198 0.201426,-0.604263 0.101177,-0.705447 V 17.874469 17.571858 L -17.488079,17.26926 -23.636617,4.9731413 -23.435198,4.7717111 V 4.367929 l -0.100238,-0.4028452 -0.201415,-0.3026009 -0.302611,-0.2014261 -0.402834,-0.1011822 h -11.591622 l 0.402834,-0.2014187 0.302613,-0.2014188 0.101176,-0.4028446 0.100239,-0.4037831 -0.100239,-0.4028446 -0.302612,-0.4028449 -0.402834,-0.3026008 -0.403793,-0.10118222 h -0.504028 l 0.504028,-0.40284457 0.302611,-0.60519807 0.201419,-0.60426347 0.101176,-0.60521257 v -0.6042637 l -0.201408,-0.605209 -0.302611,-0.402833 -0.302597,-0.504027 -0.402849,-0.302612 -0.504015,-0.301652 -0.60521,-0.101182 z" style="fill:#2c3e50;fill-rule:evenodd;stroke:none;stroke-width:.36510721;stroke-linecap:square;stroke-miterlimit:10"/></g></svg>