<svg xmlns="http://www.w3.org/2000/svg" xmlns:svg="http://www.w3.org/2000/svg" id="svg334" width="370" height="350" version="1.1" viewBox="0 0 97.896 92.604"><defs id="defs328"><linearGradient id="g368488a2f1_0_0.9" x1="43.977" x2="37.432" y1="27.776" y2="21.231" gradientTransform="matrix(9.4038692,0,0,9.4038692,-779.17756,-349.15007)" gradientUnits="userSpaceOnUse" spreadMethod="pad"><stop id="stop109" offset="0" stop-color="#e5e5e5"/><stop id="stop111" offset="1" stop-color="#fcfcfc"/></linearGradient><linearGradient id="g368488a2f1_0_0.8" x1="31.531" x2="41.076" y1="29.614" y2="29.614" gradientTransform="matrix(9.6976259,0,0,9.6976259,-779.17756,-349.15007)" gradientUnits="userSpaceOnUse" spreadMethod="pad"><stop id="stop96" offset="0" stop-color="#dbdcdd"/><stop id="stop98" offset=".41" stop-color="#dbdcdd"/><stop id="stop100" offset=".6" stop-color="#b1b3b5"/><stop id="stop102" offset="1" stop-color="#b1b3b5"/></linearGradient><linearGradient id="g368488a2f1_0_0.7" x1="31.547" x2="41.088" y1="30.129" y2="30.129" gradientTransform="matrix(9.6936088,0,0,9.6936088,-779.17756,-349.15007)" gradientUnits="userSpaceOnUse" spreadMethod="pad"><stop id="stop87" offset="0" stop-color="#6cf"/><stop id="stop89" offset="1" stop-color="#1db4ff"/></linearGradient><linearGradient id="g368488a2f1_0_0.6" x1="31.534" x2="41.079" y1="31.218" y2="31.218" gradientTransform="matrix(9.6976259,0,0,9.6976259,-779.17756,-349.15007)" gradientUnits="userSpaceOnUse" spreadMethod="pad"><stop id="stop74" offset="0" stop-color="#0a93eb"/><stop id="stop76" offset=".45" stop-color="#0a93eb"/><stop id="stop78" offset=".56" stop-color="#0f72e5"/><stop id="stop80" offset="1" stop-color="#0f72e5"/></linearGradient></defs><metadata id="metadata331"/><g id="layer1" transform="translate(476.06101,136.36768)"><path style="fill:url(#g368488a2f1_0_0.6);fill-rule:evenodd;stroke-width:1.01600683" id="path85" d="m -380.81101,-72.369861 v 0 c 0,10.644633 0,10.644633 0,10.644633 0,0.293416 -0.29299,0.587071 -1.18261,0.890245 -42.87954,14.205404 -42.87954,14.205404 -42.87954,14.205404 -1.18261,0.293647 -3.2462,0.293647 -4.72196,0 -42.88875,-14.205404 -42.88875,-14.205404 -42.88875,-14.205404 -0.29377,0 -0.58707,-0.30317 -0.58707,-0.30317 -0.30259,-0.293647 -0.30259,-0.293647 -0.30259,-0.587071 0,-10.644633 0,-10.644633 0,-10.644633 h 92.56237"/><path style="fill:url(#g368488a2f1_0_0.7);fill-rule:evenodd;stroke-width:1.01600683" id="path94" d="m -424.87277,-57.312078 v 0 c 42.88015,-14.189219 42.88015,-14.189219 42.88015,-14.189219 1.47583,-0.596275 1.47583,-1.1831 0,-1.779402 -42.88015,-14.198677 -42.88015,-14.198677 -42.88015,-14.198677 -1.18312,-0.293263 -3.53928,-0.293263 -4.72243,0 -42.88944,14.198677 -42.88944,14.198677 -42.88944,14.198677 -1.18238,0.596302 -1.18238,1.183127 0,1.779402 42.88944,14.189219 42.88944,14.189219 42.88944,14.189219 1.47657,0.293532 3.53931,0.293532 4.72243,0"/><path style="fill:url(#g368488a2f1_0_0.8);fill-rule:evenodd;stroke-width:1.01600683" id="path107" d="m -380.83612,-87.927008 v 0 c 0,10.644633 0,10.644633 0,10.644633 0,0.293416 -0.293,0.587067 -1.18258,0.890245 -42.87953,14.205431 -42.87953,14.205431 -42.87953,14.205431 -1.18262,0.293608 -3.24621,0.293608 -4.72197,0 -42.88875,-14.205431 -42.88875,-14.205431 -42.88875,-14.205431 -0.29376,0 -0.58706,-0.303171 -0.58706,-0.303171 -0.30221,-0.293646 -0.30221,-0.293646 -0.30221,-0.587067 0,-10.644632 0,-10.644632 0,-10.644632 h 92.56229"/><path style="fill:url(#g368488a2f1_0_0.9);fill-rule:evenodd;stroke-width:1.01600683" id="path116" d="m -424.91651,-72.869218 v 0 c 42.88011,-14.189218 42.88011,-14.189218 42.88011,-14.189218 1.4758,-0.596272 1.4758,-1.183097 0,-1.779403 -42.88011,-14.198681 -42.88011,-14.198681 -42.88011,-14.198681 -1.18315,-0.29326 -3.53931,-0.29326 -4.72247,0 -42.88944,14.198681 -42.88944,14.198681 -42.88944,14.198681 -1.18234,0.596306 -1.18234,1.183131 0,1.779403 42.88944,14.189218 42.88944,14.189218 42.88944,14.189218 1.47661,0.293532 3.53932,0.293532 4.72247,0"/><path style="fill:#23282f;fill-rule:evenodd;stroke-width:1.01600683" id="path118" d="m -412.12723,-102.98276 0.29376,0.0211 0.29377,0.0419 0.27264,0.0629 0.27264,0.10498 0.25191,0.12592 0.18892,0.0838 0.16781,0.10498 0.16781,0.12572 0.14669,0.12592 0.29376,0.29388 0.25191,0.31476 0.20967,0.35663 0.10483,0.16796 0.063,0.18866 0.0841,0.18885 0.0419,0.21001 0.0419,0.18866 0.0192,0.20998 0.0422,0.272753 v 0.272718 l -0.0422,0.293647 -0.0418,0.272949 -0.0841,0.251637 -0.0837,0.272949 -0.12595,0.251599 -0.12596,0.2309 -0.16781,0.230709 -0.16781,0.230901 -0.18892,0.188891 -0.20967,0.188891 -0.23079,0.167732 -0.23078,0.146843 -0.25191,0.125914 -0.2519,0.104986 -0.35674,0.104987 -0.35674,0.06298 -0.35674,0.02074 -0.37786,-0.02074 -0.35674,-0.04205 -0.35673,-0.105025 -0.33562,-0.125876 -0.3145,-0.167771 -0.29376,-0.188852 -0.25191,-0.230901 -0.23078,-0.230709 -0.20967,-0.272718 -0.18893,-0.272757 -0.14707,-0.293878 -0.12557,-0.314805 -0.0841,-0.335695 -0.0419,-0.293647 -0.0192,-0.293839 v -0.293646 l 0.0192,-0.293877 0.0419,-0.27276 0.0841,-0.29365 0.10483,-0.27275 0.12596,-0.25183 0.18893,-0.31481 0.20966,-0.27272 0.23079,-0.25183 0.27264,-0.2309 0.29376,-0.20978 0.31488,-0.16773 0.31488,-0.12591 0.35674,-0.10499 0.27264,-0.0419 0.29377,-0.0211 z m -3.39919,-23.14358 -1.74145,0.29365 -1.74164,0.29388 -3.48306,0.58753 -22.63995,3.77672 -0.39867,0.0841 -0.37786,0.10479 -0.37786,0.12592 -0.35674,0.14684 -0.35674,0.16796 -0.33561,0.18889 -0.31489,0.25179 -0.14669,0.12592 -0.14668,0.14684 -0.14669,0.18889 -0.14708,0.23071 -0.10483,0.2309 -0.0841,0.25183 -0.063,0.2516 -0.0419,0.27295 -0.0419,0.2516 -0.0192,0.27295 v 29.774037 l 0.0192,0.44047 0.0841,0.440693 0.10483,0.440681 0.12596,0.419581 0.18893,0.419784 0.20966,0.398652 0.25191,0.356585 0.27264,0.356623 0.18893,0.188853 0.18893,0.188852 0.18893,0.167963 0.20966,0.146804 0.20967,0.146843 0.20966,0.146804 0.23079,0.125914 0.23079,0.105025 0.2519,0.104986 0.23079,0.08391 0.2519,0.08383 0.25152,0.06298 0.25191,0.04205 0.27264,0.04186 0.25191,0.02112 0.2519,0.02074 h 33.08935 l 0.44045,-0.04205 0.46165,-0.06302 0.41976,-0.104795 0.44049,-0.125914 0.39886,-0.188853 0.39863,-0.20978 0.37748,-0.251829 0.33561,-0.272719 0.18893,-0.188852 0.18893,-0.188891 0.16781,-0.188853 0.14669,-0.20978 0.14669,-0.209781 0.14669,-0.20978 0.12595,-0.230901 0.10522,-0.230671 0.10483,-0.251828 0.0837,-0.230901 0.0841,-0.251829 0.063,-0.251599 0.0422,-0.251829 0.0419,-0.272757 0.0192,-0.251828 0.0192,-0.251829 v -23.185371 l -0.0419,-0.48253 -0.0837,-0.50366 -0.0419,-0.23071 -0.0841,-0.25182 -0.063,-0.23094 -0.10484,-0.23071 -0.10483,-0.25183 -0.12595,-0.2309 -0.14669,-0.23071 -0.14669,-0.2309 -0.16781,-0.20978 -0.16781,-0.18885 -0.18893,-0.20979 -0.18893,-0.16773 -0.20966,-0.18889 -0.21005,-0.16796 -0.23079,-0.14684 -0.23078,-0.12592 -0.23079,-0.12591 -0.2519,-0.12592 -0.25191,-0.0838 -0.25191,-0.0838 -0.25152,-0.0841 -0.27302,-0.063 -0.27265,-0.0419 -0.27264,-0.0211 -0.56659,-0.0207 h -33.19446 l -0.65046,-0.0211 -0.33562,-0.0211 -0.31488,-0.0207 -0.3145,-0.063 -0.31488,-0.10479 -0.29376,-0.12592 -0.14669,-0.0841 -0.12595,-0.1048 -0.12595,-0.10498 -0.10484,-0.12592 -0.0841,-0.12591 -0.063,-0.14685 -0.0419,-0.1468 -0.0419,-0.16796 -0.0419,-0.31458 36.3834,-1.63665 0.0192,-2.91668 -0.0192,-0.44069 -0.0419,-0.44049 -0.0192,-0.2309 -0.0419,-0.20978 -0.063,-0.23071 -0.0841,-0.20998 -0.10484,-0.23071 -0.12595,-0.20978 -0.16781,-0.20997 -0.16781,-0.18866 -0.20966,-0.16796 -0.21005,-0.14684 -0.20967,-0.12592 -0.23078,-0.10498 -0.37786,-0.14685 -0.37786,-0.12591 -0.39863,-0.0838 -0.39867,-0.063 -0.39864,-0.042 -0.39867,-0.0419 -0.7973,-0.042 z"/></g></svg>